<svg width="52" height="35" viewBox="0 0 52 35" fill="none" xmlns="http://www.w3.org/2000/svg">
<path d="M3.74 27.7667C6.72667 25.1844 9.07556 23.0689 10.7867 21.42C12.5289 19.74 13.9756 17.9978 15.1267 16.1933C16.2778 14.3889 16.8533 12.5844 16.8533 10.78C16.8533 8.91333 16.4022 7.45111 15.5 6.39333C14.6289 5.33556 13.2444 4.80667 11.3467 4.80667C9.51111 4.80667 8.08 5.39778 7.05333 6.58C6.05778 7.73111 5.52889 9.28667 5.46667 11.2467H0.333333C0.426667 7.7 1.48444 4.99333 3.50667 3.12667C5.56 1.22889 8.15778 0.280001 11.3 0.280001C14.6911 0.280001 17.3356 1.21333 19.2333 3.08C21.1622 4.94667 22.1267 7.43556 22.1267 10.5467C22.1267 12.7867 21.5511 14.9489 20.4 17.0333C19.28 19.0867 17.9267 20.9378 16.34 22.5867C14.7844 24.2044 12.7933 26.0867 10.3667 28.2333L8.26667 30.1H23.06V34.5333H0.38V30.66L3.74 27.7667ZM27.7336 17.5467C27.7336 12.1644 28.6358 7.96444 30.4403 4.94667C32.2758 1.89778 35.418 0.373333 39.8669 0.373333C44.3158 0.373333 47.4425 1.89778 49.2469 4.94667C51.0825 7.96444 52.0003 12.1644 52.0003 17.5467C52.0003 22.9911 51.0825 27.2533 49.2469 30.3333C47.4425 33.3822 44.3158 34.9067 39.8669 34.9067C35.418 34.9067 32.2758 33.3822 30.4403 30.3333C28.6358 27.2533 27.7336 22.9911 27.7336 17.5467ZM46.7736 17.5467C46.7736 15.0267 46.6025 12.8956 46.2603 11.1533C45.9491 9.41111 45.2958 7.99556 44.3003 6.90667C43.3047 5.78667 41.8269 5.22667 39.8669 5.22667C37.9069 5.22667 36.4291 5.78667 35.4336 6.90667C34.438 7.99556 33.7691 9.41111 33.4269 11.1533C33.1158 12.8956 32.9603 15.0267 32.9603 17.5467C32.9603 20.16 33.1158 22.3533 33.4269 24.1267C33.738 25.9 34.3914 27.3311 35.3869 28.42C36.4136 29.5089 37.9069 30.0533 39.8669 30.0533C41.8269 30.0533 43.3047 29.5089 44.3003 28.42C45.3269 27.3311 45.9958 25.9 46.3069 24.1267C46.618 22.3533 46.7736 20.16 46.7736 17.5467Z" fill="url(#paint0_linear)"/>
<defs>
<linearGradient id="paint0_linear" x1="27.5" y1="2.14815" x2="27.5" y2="38.4444" gradientUnits="userSpaceOnUse">
<stop stop-color="#EFA855"/>
<stop offset="1" stop-color="#FFC24D"/>
</linearGradient>
</defs>
</svg>
